<svg width="1113" height="2084" xmlns="http://www.w3.org/2000/svg" xmlns:xlink="http://www.w3.org/1999/xlink" xml:space="preserve" overflow="hidden"><defs><clipPath id="clip0"><rect x="1735" y="238" width="1113" height="2084"/></clipPath></defs><g clip-path="url(#clip0)" transform="translate(-1735 -238)"><path d="M1783 538.576 1964.5 1749 2014 1738.47 1828.38 507 1783 538.576Z" fill="#EEE6F1" fill-rule="evenodd"/><path d="M1770 552.576 1951.5 1763 2001 1752.47 1815.38 521 1770 552.576Z" fill="#D5C2BC" fill-rule="evenodd"/><path d="M2587.98 1748.2 2811.19 545.233 2760.97 539.029 2534.79 1763.23 2587.98 1748.2Z" fill="#EEE6F1" fill-rule="evenodd"/><path d="M2602.21 1761.53 2818.81 539.161 2768.47 533.622 2549.03 1777.56 2602.21 1761.53Z" fill="#D5C2BC" fill-rule="evenodd"/><path d="M1738.07 2321.27C1737.38 2163.42 1736.69 2005.58 1736 1847.74 1899.57 1773.82 2081.89 1694.13 2258.97 1701.47 2488.95 1706.06 2637.42 1753.73 2839.94 1857.16 2839.94 2039.88 2845 2139.28 2845 2322L1738.07 2321.27Z" fill="#EEE5DC" fill-rule="evenodd"/><path d="M1740.5 248.344 1737 555.891C1901.24 505.817 2098.72 458.804 2282.7 432.491 2481.21 443.581 2547.77 497.73 2845 557 2844.49 453.333 2843.97 349.667 2843.46 246L1740.5 248.344Z" fill="#EEE5DC" fill-rule="evenodd"/><path d="M1735 253.332C1736.01 354.143 1737.01 454.954 1738.02 555.766 1903.15 505.938 2084.91 317.559 2286.44 322.624 2476.11 306.948 2556.6 435.522 2838.9 557 2838.39 453.843 2844.49 354.157 2843.97 251L1735 253.332Z" fill="#6D5B5B" fill-rule="evenodd"/><path d="M1828.46 455.787C1825.4 446.138 1836.53 434.006 1853.31 428.69 1870.1 423.373 1886.18 426.886 1889.24 436.535 1892.29 446.184 1881.17 458.316 1864.38 463.632 1847.6 468.948 1831.51 465.436 1828.46 455.787Z" fill="#FDFEF3" fill-rule="evenodd"/><path d="M2688.47 416.916C2692.27 407.538 2708.58 405.301 2724.9 411.92 2741.21 418.539 2751.35 431.509 2747.54 440.888 2743.74 450.266 2727.43 452.503 2711.11 445.884 2694.8 439.265 2684.66 426.295 2688.47 416.916Z" fill="#FDFEF3" fill-rule="evenodd"/><path d="M2432.71 389.77C2436.35 380.326 2452.62 377.802 2469.05 384.133 2485.47 390.464 2495.84 403.252 2492.2 412.697 2488.56 422.141 2472.29 424.665 2455.87 418.334 2439.44 412.003 2429.07 399.215 2432.71 389.77Z" fill="#FDFEF3" fill-rule="evenodd"/><path d="M2080.1 414.121C2077.05 404.472 2088.18 392.341 2104.96 387.024 2121.74 381.708 2137.83 385.22 2140.88 394.869 2143.94 404.518 2132.81 416.65 2116.03 421.966 2099.24 427.283 2083.16 423.77 2080.1 414.121Z" fill="#FDFEF3" fill-rule="evenodd"/><rect x="2247" y="368" width="87" height="17.9999"/><rect x="2258" y="373" width="65" height="7.99991" fill="#67508B"/><path d="M1737 348.458 1738.63 392C1915.58 361.062 2086.57 307.78 2274.36 299.186 2465.56 304.534 2651.34 358.006 2839.83 387.417L2842 330.506C2661.41 326.687 2439.65 272.068 2275.31 275.124 2098.04 277.033 1915.35 339.673 1737 348.458Z" fill="#483842" fill-rule="evenodd"/><path d="M1735 248.459 1735 248.459 1736.39 367C1912.41 336.203 2071.95 292.741 2264.47 274.608 2462.63 282.617 2655.29 328.438 2847.95 350.519L2848 238 1735 248.459Z" fill="#CAC6C6" fill-rule="evenodd"/><path d="M1740.54 2013.14C1917.12 1980.78 2062.52 1913.62 2270.29 1916.06 2339.35 1928.89 2380.9 1910.57 2449.97 1923.39L2844.31 2011.3 2848 2319 1735 2317.17 1740.54 2013.14Z" fill="#A68A83" fill-rule="evenodd"/><path d="M2057 1712.83C2057 1677.58 2085.58 1649 2120.83 1649L2458.17 1649C2493.42 1649 2522 1677.58 2522 1712.83L2522 1968.17C2522 2003.42 2493.42 2032 2458.17 2032L2120.83 2032C2085.58 2032 2057 2003.42 2057 1968.17Z" fill="#FFF0D1" fill-rule="evenodd"/><path d="M2042 1691.67C2042 1658.71 2068.71 1632 2101.67 1632L2447.33 1632C2480.29 1632 2507 1658.71 2507 1691.67L2507 1930.33C2507 1963.29 2480.29 1990 2447.33 1990L2101.67 1990C2068.71 1990 2042 1963.29 2042 1930.33Z" fill="#FFFBF3" fill-rule="evenodd"/><path d="M2095 1743.17C2095 1720.43 2113.43 1702 2136.17 1702L2408.83 1702C2431.57 1702 2450 1720.43 2450 1743.17L2450 1907.83C2450 1930.57 2431.57 1949 2408.83 1949L2136.17 1949C2113.43 1949 2095 1930.57 2095 1907.83Z" fill="#010000" fill-rule="evenodd"/><path d="M2410.19 1905 2350 1905" stroke="#FFFFFF" stroke-width="2.29167" stroke-miterlimit="8" fill="none" fill-rule="evenodd"/><path d="M0 0 0.000360892 63.25" stroke="#FFFFFF" stroke-width="2.29167" stroke-miterlimit="8" fill="none" fill-rule="evenodd" transform="matrix(-1 1.22465e-16 1.22465e-16 1 2411 1842)"/><path d="M2414 1737 2414 1797.19" stroke="#FFFFFF" stroke-width="2.29167" stroke-miterlimit="8" fill="none" fill-rule="evenodd"/><path d="M0 0 0.000360892 63.25" stroke="#FFFFFF" stroke-width="2.29167" stroke-miterlimit="8" fill="none" fill-rule="evenodd" transform="matrix(6.12323e-17 1 1 -6.12323e-17 2350 1737)"/><path d="M2133 1908.19 2133 1848" stroke="#FFFFFF" stroke-width="2.29167" stroke-miterlimit="8" fill="none" fill-rule="evenodd"/><path d="M0 0 0.000360892 63.25" stroke="#FFFFFF" stroke-width="2.29167" stroke-miterlimit="8" fill="none" fill-rule="evenodd" transform="matrix(-1.83697e-16 -1 -1 1.83697e-16 2196.25 1908)"/><path d="M2131 1729 2191.19 1729" stroke="#FFFFFF" stroke-width="2.29167" stroke-miterlimit="8" fill="none" fill-rule="evenodd"/><path d="M0 0 0.000360892 63.25" stroke="#FFFFFF" stroke-width="2.29167" stroke-miterlimit="8" fill="none" fill-rule="evenodd" transform="matrix(1 0 0 -1 2131 1792.25)"/><path d="M2095.12 2081 2031 2181 2545 2178.86 2479.87 2081 2095.12 2081Z" fill="#8887D2" fill-rule="evenodd"/><path d="M2035 2177 2545 2177 2482.85 2321 2091.23 2318.83 2035 2177Z" fill="#554D86" fill-rule="evenodd"/><path d="M2114 2204 2474 2206.92 2440.94 2318 2145.22 2316.54 2114 2204Z" fill="#36314F" fill-rule="evenodd"/><path d="M2193.44 2092 2176 2150.59 2406 2157 2398.37 2096.58 2193.44 2092Z" fill="#D7DBE9" fill-rule="evenodd"/><path d="M2207.09 2096 2192 2141.97 2391 2147 2384.4 2099.59 2207.09 2096Z" fill="#040302" fill-rule="evenodd"/><path d="M2219 2114.67C2219 2113.19 2220.19 2112 2221.67 2112L2285.33 2112C2286.81 2112 2288 2113.19 2288 2114.67L2288 2125.33C2288 2126.81 2286.81 2128 2285.33 2128L2221.67 2128C2220.19 2128 2219 2126.81 2219 2125.33Z" fill="#7C7C7C" fill-rule="evenodd"/><path d="M2305 2119.5C2305 2114.81 2308.81 2111 2313.5 2111 2318.19 2111 2322 2114.81 2322 2119.5 2322 2124.19 2318.19 2128 2313.5 2128 2308.81 2128 2305 2124.19 2305 2119.5Z" fill="#D0CECE" fill-rule="evenodd"/><path d="M2333 2119.5C2333 2114.81 2336.58 2111 2341 2111 2345.42 2111 2349 2114.81 2349 2119.5 2349 2124.19 2345.42 2128 2341 2128 2336.58 2128 2333 2124.19 2333 2119.5Z" fill="#DFAE43" fill-rule="evenodd"/><path d="M2362 2119.5C2362 2114.81 2365.58 2111 2370 2111 2374.42 2111 2378 2114.81 2378 2119.5 2378 2124.19 2374.42 2128 2370 2128 2365.58 2128 2362 2124.19 2362 2119.5Z" fill="#C93029" fill-rule="evenodd"/><path d="M2434 2131C2434 2126.58 2447.43 2123 2464 2123 2480.57 2123 2494 2126.58 2494 2131 2494 2135.42 2480.57 2139 2464 2139 2447.43 2139 2434 2135.42 2434 2131Z" fill="#F9F0DA" fill-rule="evenodd"/><path d="M2088 2135C2088 2130.58 2101.43 2127 2118 2127 2134.57 2127 2148 2130.58 2148 2135 2148 2139.42 2134.57 2143 2118 2143 2101.43 2143 2088 2139.42 2088 2135Z" fill="#F9F0DA" fill-rule="evenodd"/><path d="M2098 2135.5C2098 2130.81 2106.95 2127 2118 2127 2129.05 2127 2138 2130.81 2138 2135.5 2138 2140.19 2129.05 2144 2118 2144 2106.95 2144 2098 2140.19 2098 2135.5Z" fill="#C3A27C" fill-rule="evenodd"/><path d="M2443 2131C2443 2126.03 2452.18 2122 2463.5 2122 2474.82 2122 2484 2126.03 2484 2131 2484 2135.97 2474.82 2140 2463.5 2140 2452.18 2140 2443 2135.97 2443 2131Z" fill="#C3A27C" fill-rule="evenodd"/><path d="M2088.17 2011.42 2109.3 2131.22 2131.73 2135.3 2110.25 2008.35 2088.17 2011.42Z" fill="#F7EFD8" fill-rule="evenodd"/><path d="M2478.88 2131.39 2491.48 2010.39 2471.04 2000.3 2456.81 2128.27 2478.88 2131.39Z" fill="#F7EFD8" fill-rule="evenodd"/><path d="M0 0 12.5991 121" stroke="#C3A27C" stroke-width="2.29167" stroke-miterlimit="8" fill="none" fill-rule="evenodd" transform="matrix(1 0 0 -1 2469 2130)"/><path d="M2124.33 2136.1 2095 2016" stroke="#C3A27C" stroke-width="2.29167" stroke-miterlimit="8" fill="none" fill-rule="evenodd"/><path d="M2461.3 1990.92C2464.37 1976.92 2477.75 1967.95 2491.19 1970.89 2504.63 1973.83 2513.05 1987.57 2509.99 2001.57 2506.93 2015.57 2493.55 2024.54 2480.1 2021.6 2466.66 2018.66 2458.24 2004.92 2461.3 1990.92Z" fill="#DECB91" fill-rule="evenodd"/><path d="M2464.65 1991.65C2466.89 1981.39 2478.11 1975.12 2489.71 1977.66 2501.31 1980.2 2508.89 1990.57 2506.64 2000.84 2504.4 2011.1 2493.18 2017.37 2481.58 2014.83 2469.98 2012.3 2462.4 2001.92 2464.65 1991.65Z" fill="#FFFFFF" fill-rule="evenodd"/><path d="M2468.12 1994.21C2469.73 1986.84 2478.66 1982.55 2488.08 1984.61 2497.49 1986.66 2503.82 1994.3 2502.21 2001.66 2500.6 2009.02 2491.66 2013.32 2482.25 2011.26 2472.83 2009.2 2466.51 2001.57 2468.12 1994.21Z" fill="#D8C694" fill-rule="evenodd"/><path d="M2070.88 2001.97C2073.94 1987.97 2087.32 1979.01 2100.76 1981.95 2114.21 1984.89 2122.62 1998.62 2119.56 2012.62 2116.5 2026.62 2103.12 2035.59 2089.67 2032.65 2076.23 2029.71 2067.81 2015.98 2070.88 2001.97Z" fill="#DECB91" fill-rule="evenodd"/><path d="M2074.22 2002.71C2076.47 1992.44 2087.69 1986.18 2099.28 1988.71 2110.88 1991.25 2118.46 2001.62 2116.22 2011.89 2113.97 2022.15 2102.75 2028.42 2091.15 2025.88 2079.56 2023.35 2071.98 2012.97 2074.22 2002.71Z" fill="#FFFFFF" fill-rule="evenodd"/><path d="M2077.69 2005.26C2079.3 1997.9 2088.23 1993.6 2097.65 1995.66 2107.06 1997.72 2113.39 2005.35 2111.78 2012.71 2110.17 2020.07 2101.23 2024.37 2091.82 2022.31 2082.41 2020.25 2076.08 2012.62 2077.69 2005.26Z" fill="#D8C694" fill-rule="evenodd"/><path d="M0 0 32.7524 8.84403" stroke="#65553E" stroke-width="10.3125" stroke-miterlimit="8" fill="none" fill-rule="evenodd" transform="matrix(1 0 0 -1 2085 2037.84)"/><path d="M2465 2022 2494.37 2027.28" stroke="#65553E" stroke-width="10.3125" stroke-miterlimit="8" fill="none" fill-rule="evenodd"/><path d="M2585.69 1821.96C2592.73 1799.7 2616.47 1787.37 2638.73 1794.4L2814.45 1849.96C2836.7 1856.99 2849.04 1880.73 2842 1902.99L2791.05 2064.16C2784.02 2086.41 2760.27 2098.75 2738.02 2091.71L2562.3 2036.16C2540.04 2029.13 2527.71 2005.38 2534.74 1983.13Z" fill="#FFFBF3" fill-rule="evenodd"/><path d="M2606.64 1859.61C2611.51 1844.27 2627.89 1835.79 2643.23 1840.66L2790.77 1887.54C2806.1 1892.41 2814.58 1908.8 2809.71 1924.13L2774.42 2035.19C2769.55 2050.52 2753.17 2059.01 2737.83 2054.13L2590.29 2007.25C2574.96 2002.38 2566.48 1986 2571.35 1970.67Z" fill="#010000" fill-rule="evenodd"/><path d="M2622.53 1866.62 2638.25 1871.61 2633.26 1887.34 2617.53 1882.34Z" fill="#E4A018" fill-rule="evenodd"/><path d="M2612.86 1898.85 2628.59 1903.85 2623.59 1919.57 2607.87 1914.57Z" fill="#E4A018" fill-rule="evenodd"/><path d="M2604.64 1931.54 2620.37 1936.54 2615.37 1952.26 2599.65 1947.26Z" fill="#E4A018" fill-rule="evenodd"/><path d="M2595.25 1961.09 2610.98 1966.08 2605.98 1981.81 2590.26 1976.81Z" fill="#E4A018" fill-rule="evenodd"/><path d="M2721.47 1898.05 2737.19 1903.05 2732.2 1918.78 2716.47 1913.78Z" fill="#E4A018" fill-rule="evenodd"/><path d="M2649.39 1910.46 2665.12 1915.45 2660.12 1931.18 2644.4 1926.18Z" fill="#5D425B" fill-rule="evenodd"/><path d="M2660.09 1878.55 2675.81 1883.55 2670.81 1899.27 2655.09 1894.28Z" fill="#5D425B" fill-rule="evenodd"/><path d="M2638.86 1940.09 2654.59 1945.09 2649.59 1960.81 2633.86 1955.82Z" fill="#301F18" fill-rule="evenodd"/><path d="M2628.02 1972.41 2643.75 1977.41 2638.75 1993.13 2623.03 1988.14Z" fill="#301F18" fill-rule="evenodd"/><path d="M2662.31 1982.39 2678.03 1987.39 2673.04 2003.11 2657.31 1998.12Z" fill="#301F18" fill-rule="evenodd"/><path d="M2671.14 1949.4 2686.87 1954.4 2681.87 1970.12 2666.15 1965.13Z" fill="#301F18" fill-rule="evenodd"/><path d="M2690.96 1888.58 2706.68 1893.57 2701.68 1909.3 2685.96 1904.3Z" fill="#C03427" fill-rule="evenodd"/><path d="M2680.6 1919.66 2696.32 1924.65 2691.32 1940.38 2675.6 1935.38Z" fill="#C03427" fill-rule="evenodd"/><path d="M2744.68 1941.59 2760.41 1946.58 2755.41 1962.31 2739.68 1957.31Z" fill="#C4CD90" fill-rule="evenodd"/><path d="M2695.71 1991.69 2711.44 1996.69 2706.44 2012.41 2690.72 2007.41Z" fill="#C4CD90" fill-rule="evenodd"/><path d="M2703.62 1961.22 2719.34 1966.22 2714.34 1981.94 2698.62 1976.95Z" fill="#C4CD90" fill-rule="evenodd"/><path d="M2714.91 1931.27 2730.63 1936.27 2725.64 1951.99 2709.91 1947Z" fill="#C4CD90" fill-rule="evenodd"/><path d="M2755.12 1908.75 2770.84 1913.74 2765.84 1929.47 2750.12 1924.47Z" fill="#59A2A8" fill-rule="evenodd"/><path d="M2779.5 1916.49 2795.22 1921.49 2790.23 1937.21 2774.5 1932.22Z" fill="#045C3D" fill-rule="evenodd"/><path d="M2770.79 1949.03 2786.51 1954.02 2781.51 1969.75 2765.79 1964.75Z" fill="#045C3D" fill-rule="evenodd"/><path d="M2734 1965.93 2780.48 1980.7 2763.77 2033.29 2717.29 2018.52Z" fill="#A28799" fill-rule="evenodd"/><path d="M1749.92 1924.29C1743.31 1901.91 1756.09 1878.4 1778.48 1871.79L1955.23 1819.59C1977.61 1812.98 2001.11 1825.77 2007.72 1848.15L2055.6 2010.26C2062.21 2032.65 2049.42 2056.15 2027.04 2062.76L1850.29 2114.96C1827.91 2121.57 1804.41 2108.78 1797.79 2086.4Z" fill="#FFFBF3" fill-rule="evenodd"/><path d="M1783.93 1941.58C1779.08 1926.24 1787.59 1909.87 1802.94 1905.03L1950.56 1858.41C1965.9 1853.57 1982.27 1862.08 1987.11 1877.42L2022.2 1988.54C2027.05 2003.88 2018.54 2020.25 2003.2 2025.09L1855.57 2071.71C1840.23 2076.56 1823.86 2068.05 1819.02 2052.7Z" fill="#010000" fill-rule="evenodd"/><path d="M1800.96 1938.17 1816.69 1933.2 1821.66 1948.93 1805.93 1953.9Z" fill="#E4A018" fill-rule="evenodd"/><path d="M1811.61 1970.08 1827.35 1965.11 1832.32 1980.85 1816.58 1985.82Z" fill="#E4A018" fill-rule="evenodd"/><path d="M1823.71 2001.55 1839.44 1996.58 1844.41 2012.31 1828.68 2017.28Z" fill="#E4A018" fill-rule="evenodd"/><path d="M1833.05 2031.11 1848.78 2026.14 1853.75 2041.87 1838.02 2046.84Z" fill="#E4A018" fill-rule="evenodd"/><path d="M1899.95 1906.9 1915.69 1901.94 1920.65 1917.67 1904.92 1922.64Z" fill="#E4A018" fill-rule="evenodd"/><path d="M1848.16 1958.54 1863.89 1953.57 1868.86 1969.31 1853.13 1974.28Z" fill="#5D425B" fill-rule="evenodd"/><path d="M1838.53 1926.3 1854.27 1921.33 1859.24 1937.06 1843.5 1942.03Z" fill="#5D425B" fill-rule="evenodd"/><path d="M1856.61 1988.84 1872.35 1983.87 1877.32 1999.6 1861.58 2004.57Z" fill="#301F18" fill-rule="evenodd"/><path d="M1866.36 2021.5 1882.09 2016.54 1887.06 2032.27 1871.33 2037.24Z" fill="#301F18" fill-rule="evenodd"/><path d="M1900.14 2009.92 1915.87 2004.95 1920.84 2020.69 1905.11 2025.66Z" fill="#301F18" fill-rule="evenodd"/><path d="M1888.37 1977.86 1904.1 1972.89 1909.07 1988.63 1893.34 1993.6Z" fill="#301F18" fill-rule="evenodd"/><path d="M1869.55 1916.72 1885.28 1911.75 1890.25 1927.49 1874.52 1932.46Z" fill="#C03427" fill-rule="evenodd"/><path d="M1878.97 1948.1 1894.7 1943.13 1899.67 1958.87 1883.94 1963.83Z" fill="#C03427" fill-rule="evenodd"/><path d="M1944 1929.13 1959.73 1924.17 1964.7 1939.9 1948.96 1944.87Z" fill="#C4CD90" fill-rule="evenodd"/><path d="M1932.8 1998.29 1948.54 1993.32 1953.51 2009.06 1937.77 2014.03Z" fill="#C4CD90" fill-rule="evenodd"/><path d="M1921.72 1968.83 1937.46 1963.86 1942.43 1979.6 1926.69 1984.56Z" fill="#C4CD90" fill-rule="evenodd"/><path d="M1913.71 1937.84 1929.45 1932.87 1934.42 1948.61 1918.68 1953.57Z" fill="#C4CD90" fill-rule="evenodd"/><path d="M1933.62 1896.27 1949.35 1891.3 1954.32 1907.04 1938.59 1912.01Z" fill="#59A2A8" fill-rule="evenodd"/><path d="M1958.01 1888.57 1973.75 1883.6 1978.72 1899.33 1962.98 1904.3Z" fill="#045C3D" fill-rule="evenodd"/><path d="M1969.62 1920.19 1985.36 1915.22 1990.32 1930.95 1974.59 1935.92Z" fill="#045C3D" fill-rule="evenodd"/><path d="M1949.27 1955.19 1995.78 1940.5 2012.4 1993.12 1965.89 2007.81Z" fill="#A28799" fill-rule="evenodd"/></g></svg>