<svg width="1422" height="2475" xmlns="http://www.w3.org/2000/svg" xmlns:xlink="http://www.w3.org/1999/xlink" xml:space="preserve" overflow="hidden"><g transform="translate(-1489 0)"><path d="M223.372 0 1640.39 0 1640.39 2468.06 223.372 2468.06Z" fill="#9A9995" transform="matrix(1 0 0 1.00039 1265.63 0)"/><path d="M297.164 51.6887C297.164 33.6058 311.823 18.9466 329.906 18.9466L701.193 18.9466C719.277 18.9466 733.935 33.6058 733.935 51.6887L733.935 182.652C733.935 200.734 719.277 215.394 701.193 215.394L329.906 215.394C311.823 215.394 297.164 200.734 297.164 182.652Z" fill="#AFABAB" fill-rule="evenodd" transform="matrix(1 0 0 1.00039 1265.63 0)"/><path d="M315.114 51.3558C315.114 47.2252 318.462 43.8766 322.592 43.8766L629.729 43.8766C633.859 43.8766 637.207 47.2252 637.207 51.3558L637.207 81.2711C637.207 85.4018 633.859 88.7503 629.729 88.7503L322.592 88.7503C318.462 88.7503 315.114 85.4018 315.114 81.2711Z" fill="#767171" fill-rule="evenodd" transform="matrix(1 0 0 1.00039 1265.63 0)"/><path d="M322.094 159.551 370.956 159.551 370.956 195.45 322.094 195.45Z" fill="#699228" transform="matrix(1 0 0 1.00039 1265.63 0)"/><path d="M407.853 159.551 456.715 159.551 456.715 195.45 407.853 195.45Z" fill="#BD433F" transform="matrix(1 0 0 1.00039 1265.63 0)"/><path d="M493.611 159.551 542.474 159.551 542.474 195.45 493.611 195.45Z" fill="#B7894B" transform="matrix(1 0 0 1.00039 1265.63 0)"/><path d="M637.207 148.083C637.207 125.778 654.843 107.697 676.597 107.697 698.35 107.697 715.986 125.778 715.986 148.083 715.986 170.389 698.35 188.47 676.597 188.47 654.843 188.47 637.207 170.389 637.207 148.083Z" fill="#D0CECE" fill-rule="evenodd" transform="matrix(1 0 0 1.00039 1265.63 0)"/><path d="M869.554 0 869.554 272.047" stroke="#7F7F7F" stroke-width="10.2836" stroke-miterlimit="8" fill="none" fill-rule="evenodd" transform="matrix(1 0 0 1.00039 1265.63 0)"/><path d="M1491.8 0 1491.8 383.397" stroke="#7F7F7F" stroke-width="10.2836" stroke-miterlimit="8" fill="none" fill-rule="evenodd" transform="matrix(1 0 0 1.00039 1265.63 0)"/><path d="M0 0 220.244 0.00035988" stroke="#7F7F7F" stroke-width="10.2836" stroke-miterlimit="8" fill="none" fill-rule="evenodd" transform="matrix(-1 0 0 1.00039 2905.87 782.104)"/><path d="M357.993 2062.2 358.793 2468.34" stroke="#7F7F7F" stroke-width="10.2836" stroke-miterlimit="8" fill="none" fill-rule="evenodd" transform="matrix(1 0 0 1.00039 1265.63 0)"/><path d="M1199.63 2269.62 1640.17 2269.62" stroke="#7F7F7F" stroke-width="10.2836" stroke-miterlimit="8" fill="none" fill-rule="evenodd" transform="matrix(1 0 0 1.00039 1265.63 0)"/><path d="M1199.63 2156.93 1202.42 2468.49" stroke="#7F7F7F" stroke-width="10.2836" stroke-miterlimit="8" fill="none" fill-rule="evenodd" transform="matrix(1 0 0 1.00039 1265.63 0)"/><path d="M1437.95 150.078C1440.99 150.078 1443.44 147.623 1443.44 144.593L1468.37 144.593C1468.37 147.623 1470.82 150.078 1473.85 150.078L1473.85 172.016C1470.82 172.016 1468.37 174.471 1468.37 177.501L1443.44 177.501C1443.44 174.471 1440.99 172.016 1437.95 172.016Z" fill="#7F7F7F" fill-rule="evenodd" transform="matrix(1 0 0 1.00039 1265.63 0)"/><path d="M1430.97 142.1C1434.01 142.1 1436.46 139.645 1436.46 136.616L1461.39 136.616C1461.39 139.645 1463.84 142.1 1466.87 142.1L1466.87 164.039C1463.84 164.039 1461.39 166.494 1461.39 169.523L1436.46 169.523C1436.46 166.494 1434.01 164.039 1430.97 164.039Z" fill="#595959" fill-rule="evenodd" transform="matrix(1 0 0 1.00039 1265.63 0)"/><path d="M1437.95 63.3221C1440.99 63.3221 1443.44 60.8665 1443.44 57.8374L1468.37 57.8374C1468.37 60.8665 1470.82 63.3221 1473.85 63.3221L1473.85 85.2602C1470.82 85.2602 1468.37 87.7157 1468.37 90.7448L1443.44 90.7448C1443.44 87.7157 1440.99 85.2602 1437.95 85.2602Z" fill="#7F7F7F" fill-rule="evenodd" transform="matrix(1 0 0 1.00039 1265.63 0)"/><path d="M1430.97 56.3415C1434.01 56.3415 1436.46 53.8859 1436.46 50.8568L1462.39 50.8568C1462.39 53.8859 1464.84 56.3415 1467.87 56.3415L1467.87 78.2796C1464.84 78.2796 1462.39 80.7351 1462.39 83.7643L1436.46 83.7643C1436.46 80.7351 1434.01 78.2796 1430.97 78.2796Z" fill="#595959" fill-rule="evenodd" transform="matrix(1 0 0 1.00039 1265.63 0)"/><path d="M1539.67 65.3166C1542.7 65.3166 1545.15 62.861 1545.15 59.8319L1571.08 59.8319C1571.08 62.861 1573.53 65.3166 1576.56 65.3166L1576.56 87.2545C1573.53 87.2545 1571.08 89.7101 1571.08 92.7393L1545.15 92.7393C1545.15 89.7101 1542.7 87.2545 1539.67 87.2545Z" fill="#7F7F7F" fill-rule="evenodd" transform="matrix(1 0 0 1.00039 1265.63 0)"/><path d="M1533.69 57.3387C1536.72 57.3387 1539.17 54.8831 1539.17 51.854L1564.1 51.854C1564.1 54.8831 1566.55 57.3387 1569.58 57.3387L1569.58 79.2768C1566.55 79.2768 1564.1 81.7324 1564.1 84.7615L1539.17 84.7615C1539.17 81.7324 1536.72 79.2768 1533.69 79.2768Z" fill="#595959" fill-rule="evenodd" transform="matrix(1 0 0 1.00039 1265.63 0)"/><path d="M299.158 2353.88C302.188 2353.88 304.643 2351.43 304.643 2348.39L329.573 2348.39C329.573 2351.43 332.028 2353.88 335.057 2353.88L335.057 2375.82C332.028 2375.82 329.573 2378.27 329.573 2381.3L304.643 2381.3C304.643 2378.27 302.188 2375.82 299.158 2375.82Z" fill="#7F7F7F" fill-rule="evenodd" transform="matrix(1 0 0 1.00039 1265.63 0)"/><path d="M292.178 2345.9C295.208 2345.9 297.663 2343.45 297.663 2340.42L322.592 2340.42C322.592 2343.45 325.048 2345.9 328.077 2345.9L328.077 2367.84C325.048 2367.84 322.592 2370.29 322.592 2373.32L297.663 2373.32C297.663 2370.29 295.208 2367.84 292.178 2367.84Z" fill="#595959" fill-rule="evenodd" transform="matrix(1 0 0 1.00039 1265.63 0)"/><path d="M1440.95 2311C1443.98 2311 1446.43 2308.55 1446.43 2305.51L1471.36 2305.51C1471.36 2308.55 1473.81 2311 1476.85 2311L1476.85 2332.94C1473.81 2332.94 1471.36 2335.39 1471.36 2338.42L1446.43 2338.42C1446.43 2335.39 1443.98 2332.94 1440.95 2332.94Z" fill="#7F7F7F" fill-rule="evenodd" transform="matrix(1 0 0 1.00039 1265.63 0)"/><path d="M1433.97 2303.02C1437 2303.02 1439.45 2300.57 1439.45 2297.54L1465.38 2297.54C1465.38 2300.57 1467.83 2303.02 1470.86 2303.02L1470.86 2324.96C1467.83 2324.96 1465.38 2327.41 1465.38 2330.44L1439.45 2330.44C1439.45 2327.41 1437 2324.96 1433.97 2324.96Z" fill="#595959" fill-rule="evenodd" transform="matrix(1 0 0 1.00039 1265.63 0)"/><path d="M1338.24 2305.02C1341.27 2305.02 1343.72 2302.56 1343.72 2299.53L1368.65 2299.53C1368.65 2302.56 1371.1 2305.02 1374.13 2305.02L1374.13 2326.95C1371.1 2326.95 1368.65 2329.41 1368.65 2332.44L1343.72 2332.44C1343.72 2329.41 1341.27 2326.95 1338.24 2326.95Z" fill="#7F7F7F" fill-rule="evenodd" transform="matrix(1 0 0 1.00039 1265.63 0)"/><path d="M1331.26 2297.04C1334.29 2297.04 1336.74 2294.59 1336.74 2291.55L1361.67 2291.55C1361.67 2294.59 1364.12 2297.04 1367.15 2297.04L1367.15 2318.98C1364.12 2318.98 1361.67 2321.43 1361.67 2324.46L1336.74 2324.46C1336.74 2321.43 1334.29 2318.98 1331.26 2318.98Z" fill="#595959" fill-rule="evenodd" transform="matrix(1 0 0 1.00039 1265.63 0)"/><path d="M1247.49 2305.02C1250.52 2305.02 1252.98 2302.56 1252.98 2299.53L1277.91 2299.53C1277.91 2302.56 1280.36 2305.02 1283.39 2305.02L1283.39 2326.95C1280.36 2326.95 1277.91 2329.41 1277.91 2332.44L1252.98 2332.44C1252.98 2329.41 1250.52 2326.95 1247.49 2326.95Z" fill="#7F7F7F" fill-rule="evenodd" transform="matrix(1 0 0 1.00039 1265.63 0)"/><path d="M1240.51 2297.04C1243.54 2297.04 1245.99 2294.59 1245.99 2291.55L1270.92 2291.55C1270.92 2294.59 1273.38 2297.04 1276.41 2297.04L1276.41 2318.98C1273.38 2318.98 1270.92 2321.43 1270.92 2324.46L1245.99 2324.46C1245.99 2321.43 1243.54 2318.98 1240.51 2318.98Z" fill="#595959" fill-rule="evenodd" transform="matrix(1 0 0 1.00039 1265.63 0)"/><path d="M297.164 2279.09C300.194 2279.09 302.649 2276.64 302.649 2273.6L328.576 2273.6C328.576 2276.64 331.031 2279.09 334.06 2279.09L334.06 2301.03C331.031 2301.03 328.576 2303.48 328.576 2306.51L302.649 2306.51C302.649 2303.48 300.194 2301.03 297.164 2301.03Z" fill="#7F7F7F" fill-rule="evenodd" transform="matrix(1 0 0 1.00039 1265.63 0)"/><path d="M291.181 2271.11C294.209 2271.11 296.665 2268.66 296.665 2265.63L321.595 2265.63C321.595 2268.66 324.05 2271.11 327.08 2271.11L327.08 2293.05C324.05 2293.05 321.595 2295.5 321.595 2298.53L296.665 2298.53C296.665 2295.5 294.209 2293.05 291.181 2293.05Z" fill="#595959" fill-rule="evenodd" transform="matrix(1 0 0 1.00039 1265.63 0)"/><path d="M901.464 150.078C904.494 150.078 906.949 147.623 906.949 144.593L931.879 144.593C931.879 147.623 934.335 150.078 937.363 150.078L937.363 172.016C934.335 172.016 931.879 174.471 931.879 177.501L906.949 177.501C906.949 174.471 904.494 172.016 901.464 172.016Z" fill="#7F7F7F" fill-rule="evenodd" transform="matrix(1 0 0 1.00039 1265.63 0)"/><path d="M894.484 142.1C897.512 142.1 899.968 139.645 899.968 136.616L924.898 136.616C924.898 139.645 927.353 142.1 930.383 142.1L930.383 164.039C927.353 164.039 924.898 166.495 924.898 169.523L899.968 169.523C899.968 166.495 897.512 164.039 894.484 164.039Z" fill="#595959" fill-rule="evenodd" transform="matrix(1 0 0 1.00039 1265.63 0)"/><g><g><g><path d="M2516.7 543.779C2516.7 425.772 2612.36 330.108 2730.37 330.108L3585.03 330.108C3703.04 330.108 3798.7 425.772 3798.7 543.779L3798.7 1907.88C3798.7 2025.9 3703.04 2121.56 3585.03 2121.56L2730.37 2121.56C2612.36 2121.56 2516.7 2025.9 2516.7 1907.88Z" fill="#706C69" fill-rule="evenodd" transform="matrix(1 0 0 1.05971 -957.701 -77.2449)"/><path d="M2516.7 526.04C2516.7 410.754 2610.16 317.298 2725.45 317.298L3560.39 317.298C3675.68 317.298 3769.14 410.754 3769.14 526.04L3769.14 1875.37C3769.14 1990.66 3675.68 2084.11 3560.39 2084.11L2725.45 2084.11C2610.16 2084.11 2516.7 1990.66 2516.7 1875.37Z" fill="#D3D2CD" fill-rule="evenodd" transform="matrix(1 0 0 1.05971 -957.701 -77.2449)"/><path d="M2657.61 617.355C2657.61 527.284 2730.63 454.268 2820.7 454.268L3473.03 454.268C3563.09 454.268 3636.11 527.284 3636.11 617.355L3636.11 1777.16C3636.11 1867.23 3563.09 1940.24 3473.03 1940.24L2820.7 1940.24C2730.63 1940.24 2657.61 1867.23 2657.61 1777.16Z" fill="#FFFFFF" fill-rule="evenodd" transform="matrix(1 0 0 1.05971 -957.701 -77.2449)"/><path d="M2584.69 532.607C2584.69 524.716 2591.75 518.318 2600.46 518.318 2609.17 518.318 2616.23 524.716 2616.23 532.607 2616.23 540.498 2609.17 546.895 2600.46 546.895 2591.75 546.895 2584.69 540.498 2584.69 532.607Z" fill="#706C69" fill-rule="evenodd" transform="matrix(1 0 0 1.05971 -957.701 -77.2449)"/><path d="M2582.72 528.172C2582.72 520.009 2589.78 513.391 2598.49 513.391 2607.2 513.391 2614.26 520.009 2614.26 528.172 2614.26 536.335 2607.2 542.953 2598.49 542.953 2589.78 542.953 2582.72 536.335 2582.72 528.172Z" fill="#9A9995" fill-rule="evenodd" transform="matrix(1 0 0 1.05971 -957.701 -77.2449)"/><path d="M2585.68 844.484C2585.68 836.321 2592.96 829.703 2601.94 829.703 2610.92 829.703 2618.2 836.321 2618.2 844.484 2618.2 852.647 2610.92 859.265 2601.94 859.265 2592.96 859.265 2585.68 852.647 2585.68 844.484Z" fill="#706C69" fill-rule="evenodd" transform="matrix(1 0 0 1.05971 -957.701 -77.2449)"/><path d="M2583.71 839.557C2583.71 831.394 2590.99 824.776 2599.97 824.776 2608.94 824.776 2616.23 831.394 2616.23 839.557 2616.23 847.72 2608.94 854.338 2599.97 854.338 2590.99 854.338 2583.71 847.72 2583.71 839.557Z" fill="#9A9995" fill-rule="evenodd" transform="matrix(1 0 0 1.05971 -957.701 -77.2449)"/><path d="M2705.9 407.461C2705.9 399.57 2713.18 393.173 2722.16 393.173 2731.13 393.173 2738.42 399.57 2738.42 407.461 2738.42 415.352 2731.13 421.75 2722.16 421.75 2713.18 421.75 2705.9 415.352 2705.9 407.461Z" fill="#706C69" fill-rule="evenodd" transform="matrix(1 0 0 1.05971 -957.701 -77.2449)"/><path d="M2703.93 403.027C2703.93 394.864 2711.21 388.246 2720.19 388.246 2729.16 388.246 2736.44 394.864 2736.44 403.027 2736.44 411.19 2729.16 417.808 2720.19 417.808 2711.21 417.808 2703.93 411.19 2703.93 403.027Z" fill="#9A9995" fill-rule="evenodd" transform="matrix(1 0 0 1.05971 -957.701 -77.2449)"/><path d="M2877.36 403.027C2877.36 394.864 2884.64 388.246 2893.62 388.246 2902.59 388.246 2909.87 394.864 2909.87 403.027 2909.87 411.19 2902.59 417.808 2893.62 417.808 2884.64 417.808 2877.36 411.19 2877.36 403.027Z" fill="#706C69" fill-rule="evenodd" transform="matrix(1 0 0 1.05971 -957.701 -77.2449)"/><path d="M2875.39 398.1C2875.39 389.937 2882.67 383.319 2891.64 383.319 2900.62 383.319 2907.9 389.937 2907.9 398.1 2907.9 406.263 2900.62 412.881 2891.64 412.881 2882.67 412.881 2875.39 406.263 2875.39 398.1Z" fill="#9A9995" fill-rule="evenodd" transform="matrix(1 0 0 1.05971 -957.701 -77.2449)"/><path d="M3066.55 404.012C3066.55 395.849 3073.61 389.231 3082.32 389.231 3091.03 389.231 3098.09 395.849 3098.09 404.012 3098.09 412.175 3091.03 418.793 3082.32 418.793 3073.61 418.793 3066.55 412.175 3066.55 404.012Z" fill="#706C69" fill-rule="evenodd" transform="matrix(1 0 0 1.05971 -957.701 -77.2449)"/><path d="M3064.58 399.085C3064.58 390.922 3071.64 384.304 3080.35 384.304 3089.06 384.304 3096.11 390.922 3096.11 399.085 3096.11 407.248 3089.06 413.866 3080.35 413.866 3071.64 413.866 3064.58 407.248 3064.58 399.085Z" fill="#9A9995" fill-rule="evenodd" transform="matrix(1 0 0 1.05971 -957.701 -77.2449)"/><path d="M3289.25 400.071C3289.25 391.908 3296.53 385.29 3305.51 385.29 3314.49 385.29 3321.77 391.908 3321.77 400.071 3321.77 408.234 3314.49 414.852 3305.51 414.852 3296.53 414.852 3289.25 408.234 3289.25 400.071Z" fill="#706C69" fill-rule="evenodd" transform="matrix(1 0 0 1.05971 -957.701 -77.2449)"/><path d="M3287.28 395.637C3287.28 387.745 3294.56 381.348 3303.54 381.348 3312.52 381.348 3319.8 387.745 3319.8 395.637 3319.8 403.528 3312.52 409.925 3303.54 409.925 3294.56 409.925 3287.28 403.528 3287.28 395.637Z" fill="#9A9995" fill-rule="evenodd" transform="matrix(1 0 0 1.05971 -957.701 -77.2449)"/><path d="M3478.45 400.071C3478.45 391.908 3485.5 385.29 3494.21 385.29 3502.93 385.29 3509.98 391.908 3509.98 400.071 3509.98 408.234 3502.93 414.852 3494.21 414.852 3485.5 414.852 3478.45 408.234 3478.45 400.071Z" fill="#706C69" fill-rule="evenodd" transform="matrix(1 0 0 1.05971 -957.701 -77.2449)"/><path d="M3476.48 395.637C3476.48 387.745 3483.53 381.348 3492.24 381.348 3500.95 381.348 3508.01 387.745 3508.01 395.637 3508.01 403.528 3500.95 409.925 3492.24 409.925 3483.53 409.925 3476.48 403.528 3476.48 395.637Z" fill="#9A9995" fill-rule="evenodd" transform="matrix(1 0 0 1.05971 -957.701 -77.2449)"/><path d="M3638.08 456.731C3638.08 448.84 3645.14 442.443 3653.85 442.443 3662.56 442.443 3669.61 448.84 3669.61 456.731 3669.61 464.622 3662.56 471.019 3653.85 471.019 3645.14 471.019 3638.08 464.622 3638.08 456.731Z" fill="#706C69" fill-rule="evenodd" transform="matrix(1 0 0 1.05971 -957.701 -77.2449)"/><path d="M3636.11 452.297C3636.11 444.134 3643.17 437.516 3651.88 437.516 3660.59 437.516 3667.64 444.134 3667.64 452.297 3667.64 460.46 3660.59 467.078 3651.88 467.078 3643.17 467.078 3636.11 460.46 3636.11 452.297Z" fill="#9A9995" fill-rule="evenodd" transform="matrix(1 0 0 1.05971 -957.701 -77.2449)"/><path d="M3689.32 634.595C3689.32 626.432 3696.6 619.814 3705.58 619.814 3714.56 619.814 3721.84 626.432 3721.84 634.595 3721.84 642.758 3714.56 649.376 3705.58 649.376 3696.6 649.376 3689.32 642.758 3689.32 634.595Z" fill="#706C69" fill-rule="evenodd" transform="matrix(1 0 0 1.05971 -957.701 -77.2449)"/><path d="M3687.35 629.668C3687.35 621.505 3694.41 614.887 3703.12 614.887 3711.83 614.887 3718.88 621.505 3718.88 629.668 3718.88 637.831 3711.83 644.449 3703.12 644.449 3694.41 644.449 3687.35 637.831 3687.35 629.668Z" fill="#9A9995" fill-rule="evenodd" transform="matrix(1 0 0 1.05971 -957.701 -77.2449)"/><path d="M3691.29 849.411C3691.29 841.248 3698.58 834.63 3707.55 834.63 3716.53 834.63 3723.81 841.248 3723.81 849.411 3723.81 857.574 3716.53 864.192 3707.55 864.192 3698.58 864.192 3691.29 857.574 3691.29 849.411Z" fill="#706C69" fill-rule="evenodd" transform="matrix(1 0 0 1.05971 -957.701 -77.2449)"/><path d="M3689.32 844.484C3689.32 836.321 3696.6 829.703 3705.58 829.703 3714.56 829.703 3721.84 836.321 3721.84 844.484 3721.84 852.647 3714.56 859.265 3705.58 859.265 3696.6 859.265 3689.32 852.647 3689.32 844.484Z" fill="#9A9995" fill-rule="evenodd" transform="matrix(1 0 0 1.05971 -957.701 -77.2449)"/><path d="M3692.28 1046.98C3692.28 1039.09 3699.56 1032.7 3708.54 1032.7 3717.51 1032.7 3724.8 1039.09 3724.8 1046.98 3724.8 1054.88 3717.51 1061.27 3708.54 1061.27 3699.56 1061.27 3692.28 1054.88 3692.28 1046.98Z" fill="#706C69" fill-rule="evenodd" transform="matrix(1 0 0 1.05971 -957.701 -77.2449)"/><path d="M3690.31 1042.55C3690.31 1034.39 3697.59 1027.77 3706.57 1027.77 3715.54 1027.77 3722.83 1034.39 3722.83 1042.55 3722.83 1050.71 3715.54 1057.33 3706.57 1057.33 3697.59 1057.33 3690.31 1050.71 3690.31 1042.55Z" fill="#9A9995" fill-rule="evenodd" transform="matrix(1 0 0 1.05971 -957.701 -77.2449)"/><path d="M3687.35 1235.19C3687.35 1227.3 3694.41 1220.91 3703.12 1220.91 3711.83 1220.91 3718.88 1227.3 3718.88 1235.19 3718.88 1243.09 3711.83 1249.48 3703.12 1249.48 3694.41 1249.48 3687.35 1243.09 3687.35 1235.19Z" fill="#706C69" fill-rule="evenodd" transform="matrix(1 0 0 1.05971 -957.701 -77.2449)"/><path d="M3685.38 1230.76C3685.38 1222.6 3692.44 1215.98 3701.15 1215.98 3709.86 1215.98 3716.91 1222.6 3716.91 1230.76 3716.91 1238.92 3709.86 1245.54 3701.15 1245.54 3692.44 1245.54 3685.38 1238.92 3685.38 1230.76Z" fill="#9A9995" fill-rule="evenodd" transform="matrix(1 0 0 1.05971 -957.701 -77.2449)"/><path d="M2584.69 692.241C2584.69 684.35 2591.98 677.952 2600.95 677.952 2609.93 677.952 2617.21 684.35 2617.21 692.241 2617.21 700.132 2609.93 706.529 2600.95 706.529 2591.98 706.529 2584.69 700.132 2584.69 692.241Z" fill="#706C69" fill-rule="evenodd" transform="matrix(1 0 0 1.05971 -957.701 -77.2449)"/><path d="M2582.72 687.314C2582.72 679.423 2590 673.026 2598.98 673.026 2607.96 673.026 2615.24 679.423 2615.24 687.314 2615.24 695.205 2607.96 701.602 2598.98 701.602 2590 701.602 2582.72 695.205 2582.72 687.314Z" fill="#9A9995" fill-rule="evenodd" transform="matrix(1 0 0 1.05971 -957.701 -77.2449)"/><path d="M2579.77 1236.67C2579.77 1228.51 2587.05 1221.89 2596.03 1221.89 2605 1221.89 2612.28 1228.51 2612.28 1236.67 2612.28 1244.83 2605 1251.45 2596.03 1251.45 2587.05 1251.45 2579.77 1244.83 2579.77 1236.67Z" fill="#706C69" fill-rule="evenodd" transform="matrix(1 0 0 1.05971 -957.701 -77.2449)"/><path d="M2577.8 1232.24C2577.8 1224.34 2585.08 1217.95 2594.05 1217.95 2603.03 1217.95 2610.31 1224.34 2610.31 1232.24 2610.31 1240.13 2603.03 1246.53 2594.05 1246.53 2585.08 1246.53 2577.8 1240.13 2577.8 1232.24Z" fill="#9A9995" fill-rule="evenodd" transform="matrix(1 0 0 1.05971 -957.701 -77.2449)"/><path d="M2581.74 1028.75C2581.74 1020.59 2589.02 1013.97 2598 1013.97 2606.97 1013.97 2614.26 1020.59 2614.26 1028.75 2614.26 1036.91 2606.97 1043.53 2598 1043.53 2589.02 1043.53 2581.74 1036.91 2581.74 1028.75Z" fill="#706C69" fill-rule="evenodd" transform="matrix(1 0 0 1.05971 -957.701 -77.2449)"/><path d="M2579.77 1024.32C2579.77 1016.43 2587.05 1010.03 2596.03 1010.03 2605 1010.03 2612.28 1016.43 2612.28 1024.32 2612.28 1032.21 2605 1038.61 2596.03 1038.61 2587.05 1038.61 2579.77 1032.21 2579.77 1024.32Z" fill="#9A9995" fill-rule="evenodd" transform="matrix(1 0 0 1.05971 -957.701 -77.2449)"/><path d="M2680.28 1988.04C2680.28 1980.14 2687.33 1973.75 2696.04 1973.75 2704.75 1973.75 2711.81 1980.14 2711.81 1988.04 2711.81 1995.93 2704.75 2002.32 2696.04 2002.32 2687.33 2002.32 2680.28 1995.93 2680.28 1988.04Z" fill="#706C69" fill-rule="evenodd" transform="matrix(1 0 0 1.05971 -957.701 -77.2449)"/><path d="M2678.31 1983.11C2678.31 1975.22 2685.36 1968.82 2694.07 1968.82 2702.78 1968.82 2709.84 1975.22 2709.84 1983.11 2709.84 1991 2702.78 1997.4 2694.07 1997.4 2685.36 1997.4 2678.31 1991 2678.31 1983.11Z" fill="#9A9995" fill-rule="evenodd" transform="matrix(1 0 0 1.05971 -957.701 -77.2449)"/><path d="M2945.35 1995.43C2945.35 1987.27 2952.63 1980.65 2961.61 1980.65 2970.58 1980.65 2977.87 1987.27 2977.87 1995.43 2977.87 2003.59 2970.58 2010.21 2961.61 2010.21 2952.63 2010.21 2945.35 2003.59 2945.35 1995.43Z" fill="#706C69" fill-rule="evenodd" transform="matrix(1 0 0 1.05971 -957.701 -77.2449)"/><path d="M2943.38 1990.99C2943.38 1983.1 2950.66 1976.7 2959.64 1976.7 2968.61 1976.7 2975.9 1983.1 2975.9 1990.99 2975.9 1998.89 2968.61 2005.28 2959.64 2005.28 2950.66 2005.28 2943.38 1998.89 2943.38 1990.99Z" fill="#9A9995" fill-rule="evenodd" transform="matrix(1 0 0 1.05971 -957.701 -77.2449)"/><path d="M3176.92 2001.34C3176.92 1993.18 3183.97 1986.56 3192.68 1986.56 3201.39 1986.56 3208.45 1993.18 3208.45 2001.34 3208.45 2009.5 3201.39 2016.12 3192.68 2016.12 3183.97 2016.12 3176.92 2009.5 3176.92 2001.34Z" fill="#706C69" fill-rule="evenodd" transform="matrix(1 0 0 1.05971 -957.701 -77.2449)"/><path d="M3174.95 1996.41C3174.95 1988.25 3182 1981.63 3190.71 1981.63 3199.42 1981.63 3206.48 1988.25 3206.48 1996.41 3206.48 2004.57 3199.42 2011.19 3190.71 2011.19 3182 2011.19 3174.95 2004.57 3174.95 1996.41Z" fill="#9A9995" fill-rule="evenodd" transform="matrix(1 0 0 1.05971 -957.701 -77.2449)"/><path d="M3692.28 1817.07C3692.28 1808.91 3699.56 1802.29 3708.54 1802.29 3717.51 1802.29 3724.8 1808.91 3724.8 1817.07 3724.8 1825.23 3717.51 1831.85 3708.54 1831.85 3699.56 1831.85 3692.28 1825.23 3692.28 1817.07Z" fill="#706C69" fill-rule="evenodd" transform="matrix(1 0 0 1.05971 -957.701 -77.2449)"/><path d="M3690.31 1812.64C3690.31 1804.74 3697.59 1798.35 3706.57 1798.35 3715.54 1798.35 3722.83 1804.74 3722.83 1812.64 3722.83 1820.53 3715.54 1826.92 3706.57 1826.92 3697.59 1826.92 3690.31 1820.53 3690.31 1812.64Z" fill="#9A9995" fill-rule="evenodd" transform="matrix(1 0 0 1.05971 -957.701 -77.2449)"/><path d="M3394.69 1995.43C3394.69 1987.27 3401.97 1980.65 3410.95 1980.65 3419.93 1980.65 3427.21 1987.27 3427.21 1995.43 3427.21 2003.59 3419.93 2010.21 3410.95 2010.21 3401.97 2010.21 3394.69 2003.59 3394.69 1995.43Z" fill="#706C69" fill-rule="evenodd" transform="matrix(1 0 0 1.05971 -957.701 -77.2449)"/><path d="M3392.72 1990.99C3392.72 1983.1 3400 1976.7 3408.98 1976.7 3417.95 1976.7 3425.24 1983.1 3425.24 1990.99 3425.24 1998.89 3417.95 2005.28 3408.98 2005.28 3400 2005.28 3392.72 1998.89 3392.72 1990.99Z" fill="#9A9995" fill-rule="evenodd" transform="matrix(1 0 0 1.05971 -957.701 -77.2449)"/><path d="M3603.59 1986.56C3603.59 1978.4 3610.88 1971.78 3619.85 1971.78 3628.83 1971.78 3636.11 1978.4 3636.11 1986.56 3636.11 1994.72 3628.83 2001.34 3619.85 2001.34 3610.88 2001.34 3603.59 1994.72 3603.59 1986.56Z" fill="#706C69" fill-rule="evenodd" transform="matrix(1 0 0 1.05971 -957.701 -77.2449)"/><path d="M3601.62 1981.63C3601.62 1973.47 3608.9 1966.85 3617.88 1966.85 3626.86 1966.85 3634.14 1973.47 3634.14 1981.63 3634.14 1989.79 3626.86 1996.41 3617.88 1996.41 3608.9 1996.41 3601.62 1989.79 3601.62 1981.63Z" fill="#9A9995" fill-rule="evenodd" transform="matrix(1 0 0 1.05971 -957.701 -77.2449)"/><path d="M3686.37 1615.06C3686.37 1606.91 3693.42 1600.28 3702.13 1600.28 3710.84 1600.28 3717.9 1606.91 3717.9 1615.06 3717.9 1623.22 3710.84 1629.84 3702.13 1629.84 3693.42 1629.84 3686.37 1623.22 3686.37 1615.06Z" fill="#706C69" fill-rule="evenodd" transform="matrix(1 0 0 1.05971 -957.701 -77.2449)"/><path d="M3684.4 1610.14C3684.4 1601.98 3691.45 1595.36 3700.16 1595.36 3708.87 1595.36 3715.93 1601.98 3715.93 1610.14 3715.93 1618.3 3708.87 1624.92 3700.16 1624.92 3691.45 1624.92 3684.4 1618.3 3684.4 1610.14Z" fill="#9A9995" fill-rule="evenodd" transform="matrix(1 0 0 1.05971 -957.701 -77.2449)"/><path d="M3692.28 1432.77C3692.28 1424.61 3699.56 1417.98 3708.54 1417.98 3717.51 1417.98 3724.8 1424.61 3724.8 1432.77 3724.8 1440.92 3717.51 1447.55 3708.54 1447.55 3699.56 1447.55 3692.28 1440.92 3692.28 1432.77Z" fill="#706C69" fill-rule="evenodd" transform="matrix(1 0 0 1.05971 -957.701 -77.2449)"/><path d="M3690.31 1427.84C3690.31 1419.68 3697.59 1413.06 3706.57 1413.06 3715.54 1413.06 3722.83 1419.68 3722.83 1427.84 3722.83 1436 3715.54 1442.62 3706.57 1442.62 3697.59 1442.62 3690.31 1436 3690.31 1427.84Z" fill="#9A9995" fill-rule="evenodd" transform="matrix(1 0 0 1.05971 -957.701 -77.2449)"/><path d="M2577.8 1814.11C2577.8 1805.95 2585.08 1799.33 2594.05 1799.33 2603.03 1799.33 2610.31 1805.95 2610.31 1814.11 2610.31 1822.27 2603.03 1828.9 2594.05 1828.9 2585.08 1828.9 2577.8 1822.27 2577.8 1814.11Z" fill="#706C69" fill-rule="evenodd" transform="matrix(1 0 0 1.05971 -957.701 -77.2449)"/><path d="M2575.83 1809.68C2575.83 1801.79 2583.11 1795.39 2592.08 1795.39 2601.06 1795.39 2608.34 1801.79 2608.34 1809.68 2608.34 1817.57 2601.06 1823.97 2592.08 1823.97 2583.11 1823.97 2575.83 1817.57 2575.83 1809.68Z" fill="#9A9995" fill-rule="evenodd" transform="matrix(1 0 0 1.05971 -957.701 -77.2449)"/><path d="M2579.77 1630.83C2579.77 1622.67 2587.05 1616.05 2596.03 1616.05 2605 1616.05 2612.28 1622.67 2612.28 1630.83 2612.28 1638.99 2605 1645.61 2596.03 1645.61 2587.05 1645.61 2579.77 1638.99 2579.77 1630.83Z" fill="#706C69" fill-rule="evenodd" transform="matrix(1 0 0 1.05971 -957.701 -77.2449)"/><path d="M2577.8 1625.9C2577.8 1617.74 2585.08 1611.12 2594.05 1611.12 2603.03 1611.12 2610.31 1617.74 2610.31 1625.9 2610.31 1634.06 2603.03 1640.68 2594.05 1640.68 2585.08 1640.68 2577.8 1634.06 2577.8 1625.9Z" fill="#9A9995" fill-rule="evenodd" transform="matrix(1 0 0 1.05971 -957.701 -77.2449)"/><path d="M2583.71 1435.23C2583.71 1427.34 2590.76 1420.94 2599.47 1420.94 2608.19 1420.94 2615.24 1427.34 2615.24 1435.23 2615.24 1443.12 2608.19 1449.52 2599.47 1449.52 2590.76 1449.52 2583.71 1443.12 2583.71 1435.23Z" fill="#706C69" fill-rule="evenodd" transform="matrix(1 0 0 1.05971 -957.701 -77.2449)"/><path d="M2580.75 1430.8C2580.75 1422.64 2588.03 1416.01 2597.01 1416.01 2605.99 1416.01 2613.27 1422.64 2613.27 1430.8 2613.27 1438.95 2605.99 1445.58 2597.01 1445.58 2588.03 1445.58 2580.75 1438.95 2580.75 1430.8Z" fill="#9A9995" fill-rule="evenodd" transform="matrix(1 0 0 1.05971 -957.701 -77.2449)"/></g></g></g></g></svg>